**ABCDEFGHIJKLMNOPQRSTUVWXYZabcdefghijklmnopqrstuvwxyz**************************
**PARASOLID !"#$%&'()*+,-./:;<=>?@[\]^_`{|}~0123456789**************************
**PART1;
MC=unknown;
MC_MODEL=unknown;
MC_ID=unknown;
OS=unknown;
OS_RELEASE=unknown;
FRU=Parasolid 30.0.280;
APPL=Onshape;
SITE=unknown;
USER=unknown;
FORMAT=text;
GUISE=transmit;
KEY=BTGapi::writeModels_.xmt;
FILE=BTGapi::writeModels_.xmt;
DATE=2017-12-07T04:53:38 (UTC);
**PART2;
SCH=SCH_3000280_30000;
USFLD_SIZE=0;
**PART3;
**END_OF_HEADER*****************************************************************
T51 : TRANSMIT FILE created by modeller version 300028017 SCH_2901000_281010 12
 1 321 2 3 0 0 0 0 0 0 1e3 1e-8 0 4 0 1 0 1 1 5 6 7 8 0 0 9 10 11 0 0 0 0 0 0 81
 1 2 313 12 1 13 0 0 0 14 70 3 0 4 T1 0 0 5 20 1 15 15 13 5 44 0 1 0 16 0 0 17 0
 50 6 255 0 18 19 0 20 +-.0665 -.0022 2694222958124185e-34 -.707106781186547 -86
5956056235494e-31 -.707106781186548 0 -1 1224646799147352e-31 38 7 257 0 21 22 0
 0 -19 6 23 24 25 29 8 190 0 11 26 0 -.0675 .00324961536185439 .001 19 9 52 0 1
 17 0 27 V0 16 10 192 28 ?29 0 30 31 0 0 1 18 11 188 32 33 0 34 8 ?1 81 1 32 309
 35 11 0 0 36 37 38 17 33 0 39 29 29 11 40 30 0 41 +18 34 185 37 42 11 43 26 ?1
 81 1 37 310 35 34 0 0 32 0 44 17 42 0 45 41 46 34 47 21 0 40 +18 43 166 36 48 3
4 49 50 ?1 29 26 187 0 34 50 8 -.0675 -.00324961536185439 .001 29 50 168 0 43 51
 26 .0675 -.00324961536185439 .001 29 51 165 0 49 52 50 .0675 .00324961536185439
 .001 18 49 163 53 54 43 55 51 ?1 29 52 152 0 55 56 51 -.0665 .0044 0 18 55 149
 57 58 49 59 52 ?1 29 56 148 0 59 60 52 .0665 .0044 0 18 59 145 61 62 55 63 56 ?
1 29 60 144 0 63 64 56 -.0665 -.0044 538844591624835e-33 18 63 141 65 66 59 67 6
0 ?1 29 64 140 0 67 0 60 .0665 -.0044 538844591624837e-33 18 67 137 68 69 63 0 6
4 ?1 81 1 68 300 35 67 0 0 61 57 70 17 69 0 71 72 73 67 74 75 0 76 +15 71 211 0
 54 77 0 17 72 0 71 54 69 59 78 79 0 0 -17 73 0 71 69 54 43 80 81 0 74 -17 74 0
 82 83 76 43 69 75 0 0 -16 75 219 84 ?69 85 21 86 0 0 1 17 76 0 82 74 87 67 62 8
8 0 78 -15 82 209 0 74 89 0 17 87 0 82 76 83 59 54 85 0 72 -17 62 0 90 91 92 59
 76 88 0 93 +16 88 180 94 ?62 30 95 96 0 0 1 17 78 0 97 98 93 67 72 79 0 92 +15
 97 5 0 93 99 0 17 98 0 97 100 78 63 92 101 0 47 +17 93 0 97 78 100 59 91 102 0
 87 -16 79 158 103 ?78 104 105 106 0 0 1 17 92 0 90 62 66 67 98 101 0 0 -15 90 1
06 0 92 16 0 17 66 0 90 92 91 63 107 95 0 98 +16 101 138 108 ?98 105 102 109 0 0
 1 81 1 108 288 35 101 0 0 110 111 112 16 105 153 111 ?100 79 101 113 0 0 1 16 1
02 146 110 ?91 101 85 114 0 0 1 30 109 7 0 101 114 113 0 +.0028013118675979 -.00
44 538844591624836e-33 -1 1224646799147352e-31 -1499759782661858e-47 30 114 93 0
 102 0 109 0 +.0028013118675979 .0044 0 -1 -1224646799147352e-31 0 30 113 155 0
 105 109 106 0 +-.0665 .0044 -538844591624835e-33 0 1 -1224646799147352e-31 30 1
06 160 0 79 113 115 0 +.0665 -.0044 538844591624837e-33 0 -1 1224646799147352e-3
1 31 115 169 0 104 106 116 0 -.0675 0 0 -1 0 0 0 0 1 .0034 16 104 167 117 ?48 81
 79 115 0 0 1 30 116 172 0 81 115 118 0 +.0675 .0044 .001 0 1 -1224646799147352e
-31 16 81 170 119 ?80 95 104 116 0 0 1 31 118 177 0 95 116 96 0 +-.0665 0 0 1 0
 0 0 0 -1 .0044 16 95 175 120 ?66 88 81 118 0 0 1 31 96 182 0 88 118 121 0 +.066
5 0 0 -1 0 0 0 0 1 .0044 31 121 191 0 30 96 31 0 --.0675 0 0 1 0 0 0 0 -1 .0034
 16 30 189 122 ?33 10 88 121 0 0 1 30 31 194 0 10 121 86 0 +-.0675 -.0044 .001 0
 -1 1224646799147352e-31 38 86 227 0 75 31 123 0 -124 125 126 127 128 38 123 226
 0 85 86 22 0 -124 125 129 130 131 52 124 225 0 89 132 125 133 +.0665 0 0 -1 0 0
 .0044 .707106781186547 .707106781186548 0 0 1 50 125 224 0 77 124 19 134 +.0665
 -.0022 2694222958124185e-34 .707106781186547 -865956056235494e-31 -.70710678118
6548 0 1 -1224646799147352e-31 40 2 126 0 1 2 .0001470790776041074 .148172469332
002 ??.0665 -.0044 538844591624837e-33 .0675 -.003249615361854395 .001 41 1 127
 L?.0665 -.0044 538844591624837e-33 41 1 128 L?.0675 -.003249615361854395 .001 1
4 77 210 135 ?136 89 71 5 125 +0 0 136 89 27 52 19 256 0 136 125 6 137 +-.0675 0
 0 1 0 0 .0034 .707106781186547 .707106781186548 0 0 -1 141 134 86 138 138 125 1
41 138 123 134 134 125 14 136 239 139 ?18 77 140 5 19 +0 0 18 77 27 141 137 22 1
41 141 19 38 22 258 0 142 123 7 0 -19 6 143 144 145 141 141 7 137 137 19 16 142
 250 146 ?58 21 0 22 0 0 1 40 2 143 0 1 2 .0001470790776041124 .148172469332003
 ??-.0665 .0044 -2694222958124175e-34 -.0675 .00324961536185439 .001 41 1 144 L?
-.0665 .0044 -2694222958124175e-34 41 1 145 L?-.0675 .00324961536185439 .001 81
 1 146 305 35 142 0 0 84 147 148 17 58 0 45 46 41 55 149 142 0 107 +16 21 248 14
7 ?42 75 142 7 0 0 1 81 1 147 306 35 21 0 0 146 53 150 80 1 35 151 152 9000 0 0
 0 0 3 6 0 0 0 FFTFTFTTFFFFFF1 81 1 53 307 35 49 0 0 147 36 153 82 3 150 7 13 1
 81 1 36 308 35 43 0 0 53 32 154 82 3 153 7 4 0 82 3 154 7 5 0 79 9 152 BTI/DetI
d15 45 242 0 42 18 0 17 46 0 45 42 58 63 100 105 0 0 -17 41 0 45 58 42 11 29 10
 0 149 -17 149 0 140 40 107 11 58 142 0 0 -17 107 0 140 149 47 55 66 95 0 100 -1
5 140 240 0 149 136 0 17 47 0 140 107 40 63 42 21 0 46 -17 100 0 97 93 98 55 46
 105 0 91 +17 91 0 90 66 62 55 93 102 0 0 +17 40 0 140 47 149 34 33 30 0 29 -17
 29 0 39 33 33 34 41 10 0 0 +15 39 186 0 33 155 0 14 155 104 156 ?157 16 39 5 13
2 -0 0 157 16 27 81 1 156 315 158 155 159 0 160 161 162 14 157 50 161 ?99 155 16
3 5 164 -0 0 99 155 27 14 16 107 160 ?155 0 90 5 165 -0 0 155 0 27 50 132 110 0
 155 164 124 0 +-.0675 -.0022 269422295812419e-33 1 0 0 0 0 -1 13 27 51 0 0 0 0
 0 0 9 16 50 164 109 0 157 165 132 0 +.0675 -.00219876529085738 269271087552479e
-33 -1 0 0 0 0 1 51 165 108 0 16 166 164 0 -0 0 0 -1 0 0 .0044 0 0 1 50 166 2 0
 99 0 165 0 +0 -.0022 2694222958124185e-34 0 -1224646799147352e-31 -1 1 0 0 14 9
9 1 167 ?89 157 97 5 166 +0 0 89 157 27 81 1 167 317 158 99 168 0 161 169 170 14
 89 208 169 ?77 99 82 5 124 +0 0 77 99 27 81 1 169 318 158 89 171 0 167 135 172
 80 1 158 0 173 8001 0 0 0 0 3 5 0 0 0 FFFFTFTFFFFFFF2 81 1 171 291 35 89 0 169
 28 174 175 81 1 135 319 158 77 176 0 169 139 177 83 3 172 .603921568627451 .647
058823529412 .686274509803922 81 1 176 293 35 77 0 135 174 178 179 81 1 139 320
 158 136 174 0 135 180 181 83 3 177 .603921568627451 .647058823529412 .686274509
803922 81 1 174 292 35 136 0 139 171 176 182 81 1 180 321 158 18 178 0 139 0 183
 83 3 181 .603921568627451 .647058823529412 .686274509803922 14 18 241 180 ?0 13
6 45 5 6 +0 0 0 136 27 81 1 178 294 35 18 0 180 176 168 184 83 3 183 .6039215686
27451 .647058823529412 .686274509803922 81 1 168 295 35 99 0 167 178 185 186 82
 3 184 7 3 2 81 1 185 296 35 157 0 161 168 187 188 82 3 186 7 4 2 81 1 161 316 1
58 157 185 0 156 167 189 81 1 187 297 35 16 0 160 185 159 190 82 3 188 7 5 2 81
 1 160 314 158 16 187 0 0 156 191 81 1 159 298 35 155 0 156 187 61 192 82 3 190
 7 6 2 81 1 61 299 35 59 0 0 159 68 193 82 3 192 7 7 2 82 3 193 7 0 0 83 3 191 .
603921568627451 .647058823529412 .686274509803922 83 3 189 .603921568627451 .647
058823529412 .686274509803922 82 3 182 7 1 2 82 3 179 7 2 2 81 1 28 290 35 10 0
 0 111 171 194 82 3 175 7 0 2 81 1 111 289 35 105 0 0 108 28 195 82 3 194 7 9 1
 82 3 195 7 8 1 79 15 173 SDL/TYSA_COLOUR83 3 170 .603921568627451 .647058823529
412 .686274509803922 15 163 164 0 48 157 0 17 48 0 163 80 80 43 83 104 0 73 +17
 80 0 163 48 48 49 73 81 0 0 +17 83 0 82 87 74 49 48 104 0 80 -83 3 162 .6039215
68627451 .647058823529412 .686274509803922 81 1 84 304 35 75 0 0 196 146 197 82
 3 148 7 12 1 81 1 196 303 35 85 0 0 65 84 198 82 3 197 7 11 1 16 85 217 196 ?54
 102 75 123 0 0 1 81 1 65 302 35 63 0 0 57 196 199 82 3 198 7 10 1 81 1 57 301 3
5 55 0 0 68 65 200 82 3 199 7 3 0 82 3 200 7 2 0 17 54 0 71 73 72 49 87 85 0 83
 +141 133 86 201 201 124 141 201 123 133 133 124 40 2 129 0 1 2 .000147079077604
1102 .148172469332003 ??.0675 .00324961536185439 .001 .0665 .0044 -1725306753736
585e-33 41 1 130 L?.0675 .00324961536185439 .001 41 1 131 L?.0665 .0044 -1725306
753736585e-33 81 1 122 284 35 30 0 0 120 103 202 81 1 120 283 35 95 0 0 94 122 2
03 81 1 103 285 35 79 0 0 122 119 204 82 3 202 7 3 1 81 1 119 286 35 81 0 0 103
 110 205 82 3 204 7 4 1 81 1 110 287 35 102 0 0 119 108 206 82 3 205 7 5 1 82 3
 206 7 6 1 81 1 94 282 35 88 0 0 117 120 207 82 3 203 7 2 1 81 1 117 281 35 104
 0 0 208 94 209 82 3 207 7 1 1 81 1 208 132 35 1 0 210 0 117 211 82 3 209 7 0 1
 81 1 210 311 212 1 208 13 0 0 213 82 3 211 6 0 3 80 1 212 214 215 8038 0 0 0 0
 0 0 0 0 0 TTTTTTTTTTTTTF10 81 1 13 312 214 1 210 2 0 0 216 98 6 213 80 97 114 1
16 32 49 80 1 214 217 218 8017 0 0 0 0 0 0 0 0 0 TTTTTTTTTTTTTF3 84 6 216 Part 1
79 13 218 SDL/TYSA_NAME79 14 215 SDL/TYSA_UNAME82 3 112 7 7 1 82 3 70 7 1 0 82 3
 44 7 7 0 82 3 38 7 6 0 19 17 43 0 1 0 9 5 S0 40 2 23 0 1 2 .0001470790776041092
 .1481724693320022 ??-.0675 -.00324961536185439 .001 -.0665 -.0044 3631701287887
325e-33 41 1 24 L?-.0675 -.00324961536185439 .001 41 1 25 L?-.0665 -.0044 363170
1287887325e-33 141 20 22 219 219 6 141 219 7 20 20 6 74 20 15 5 0 0 37 210 13 2
 180 0 0 0 0 0 0 0 0 0 0 0 0 0 0 0 80 1 12 158 220 8040 0 0 0 0 3 5 0 0 0 TTTFFF
FFFFFFFF2 83 3 14 .603921568627451 .647058823529412 .686274509803922 79 17 220 S
DL/TYSA_COLOUR_21 0 
